<svg width="40" height="40" viewBox="0 0 40 40" fill="none" xmlns="http://www.w3.org/2000/svg">
<path d="M32.5002 16.25C35.4917 16.25 37.9168 13.8249 37.9168 10.8333C37.9168 7.84179 35.4917 5.41667 32.5002 5.41667C29.5086 5.41667 27.0835 7.84179 27.0835 10.8333C27.0835 13.8249 29.5086 16.25 32.5002 16.25Z" fill="white"/>
<path fill-rule="evenodd" clip-rule="evenodd" d="M27.6735 16.015L20.2502 21.5833C20.1018 21.695 19.8985 21.695 19.7502 21.5833L4.23016 9.94334C4.72683 9.70834 5.2735 9.58334 5.8335 9.58334H25.5268C25.4552 9.98834 25.4168 10.4067 25.4168 10.8333C25.4168 12.8783 26.2852 14.7217 27.6735 16.015ZM37.9168 15.395V30.8333C37.9168 31.4117 37.7835 31.975 37.5335 32.485L26.6068 19.9417L29.9418 17.44C30.7352 17.7483 31.5985 17.9167 32.5002 17.9167C34.6718 17.9167 36.6168 16.9367 37.9168 15.395ZM35.7435 34.235C35.2535 34.4633 34.7168 34.5833 34.1668 34.5833H5.8335C5.2835 34.5833 4.74683 34.4633 4.25683 34.235L15.3985 21.445L18.2502 23.5833C19.2868 24.3617 20.7135 24.3617 21.7502 23.5833L24.6018 21.445L35.7435 34.235ZM2.46683 32.485C2.21683 31.975 2.0835 31.4117 2.0835 30.8333V13.3333C2.0835 12.7733 2.2085 12.225 2.4435 11.7283L13.3935 19.9417L2.46683 32.485Z" fill="white"/>
</svg>
