<svg width="39" height="39" viewBox="0 0 39 39" fill="none" xmlns="http://www.w3.org/2000/svg">
<mask id="mask0_388_117" style="mask-type:luminance" maskUnits="userSpaceOnUse" x="0" y="0" width="39" height="39">
<path d="M39 0H0V39H39V0Z" fill="white"/>
<path d="M9.52148 14.4727C8.68009 14.4727 7.99805 15.1547 7.99805 15.9961C7.99805 16.8375 8.68009 17.5195 9.52148 17.5195C10.3629 17.5195 11.0449 16.8375 11.0449 15.9961C11.0449 15.1547 10.3629 14.4727 9.52148 14.4727Z" fill="white"/>
<path d="M16.1484 14.4727C15.307 14.4727 14.625 15.1547 14.625 15.9961C14.625 16.8375 15.307 17.5195 16.1484 17.5195C16.9898 17.5195 17.6719 16.8375 17.6719 15.9961C17.6719 15.1547 16.9898 14.4727 16.1484 14.4727Z" fill="white"/>
<path d="M22.7754 14.4727C21.934 14.4727 21.252 15.1547 21.252 15.9961C21.252 16.8375 21.934 17.5195 22.7754 17.5195C23.6168 17.5195 24.2988 16.8375 24.2988 15.9961C24.2988 15.1547 23.6168 14.4727 22.7754 14.4727Z" fill="white"/>
<path d="M29.4023 14.4727C28.5609 14.4727 27.8789 15.1547 27.8789 15.9961C27.8789 16.8375 28.5609 17.5195 29.4023 17.5195C30.2437 17.5195 30.9258 16.8375 30.9258 15.9961C30.9258 15.1547 30.2437 14.4727 29.4023 14.4727Z" fill="white"/>
<path d="M11.0449 22.623C11.0449 21.7817 10.3629 21.0996 9.52148 21.0996C8.68009 21.0996 7.99805 21.7817 7.99805 22.623C7.99805 23.4644 8.68009 24.1465 9.52148 24.1465C10.3629 24.1465 11.0449 23.4644 11.0449 22.623Z" fill="white"/>
<path d="M11.0449 29.2498C11.0449 28.4084 10.3629 27.7264 9.52148 27.7264C8.68009 27.7264 7.99805 28.4084 7.99805 29.2498C7.99805 30.0912 8.68009 30.7733 9.52148 30.7733C10.3629 30.7733 11.0449 30.0912 11.0449 29.2498Z" fill="white"/>
<path d="M17.6719 22.623C17.6719 21.7817 16.9898 21.0996 16.1484 21.0996C15.307 21.0996 14.625 21.7817 14.625 22.623C14.625 23.4644 15.307 24.1465 16.1484 24.1465C16.9898 24.1465 17.6719 23.4644 17.6719 22.623Z" fill="white"/>
<path d="M17.6719 29.25C17.6719 28.4086 16.9898 27.7266 16.1484 27.7266C15.307 27.7266 14.625 28.4086 14.625 29.25C14.625 30.0914 15.307 30.7734 16.1484 30.7734C16.9898 30.7734 17.6719 30.0914 17.6719 29.25Z" fill="white"/>
<path d="M16.1484 14.4727C15.307 14.4727 14.625 15.1547 14.625 15.9961C14.625 16.8375 15.307 17.5195 16.1484 17.5195C16.9898 17.5195 17.6719 16.8375 17.6719 15.9961C17.6719 15.1547 16.9898 14.4727 16.1484 14.4727Z" fill="white"/>
<path d="M17.6719 22.623C17.6719 21.7817 16.9898 21.0996 16.1484 21.0996C15.307 21.0996 14.625 21.7817 14.625 22.623C14.625 23.4644 15.307 24.1465 16.1484 24.1465C16.9898 24.1465 17.6719 23.4644 17.6719 22.623Z" fill="white"/>
<path d="M17.6719 29.25C17.6719 28.4086 16.9898 27.7266 16.1484 27.7266C15.307 27.7266 14.625 28.4086 14.625 29.25C14.625 30.0914 15.307 30.7734 16.1484 30.7734C16.9898 30.7734 17.6719 30.0914 17.6719 29.25Z" fill="white"/>
<path d="M30.2468 24.1465H28.0863C27.7597 24.1465 27.4703 24.0191 27.3694 23.7099L26.6912 21.6182C26.5784 21.2724 26.2763 21.0996 25.9743 21.0996C25.6723 21.0996 25.3703 21.2724 25.2575 21.6182L24.5792 23.7099C24.4784 24.0191 24.1889 24.1465 23.8624 24.1465H21.705C20.9747 24.1465 20.6711 25.1587 21.2619 25.586L23.0002 26.8704C23.2643 27.0615 23.3749 27.4002 23.2739 27.7094L22.5958 29.7877C22.3702 30.4791 23.1649 31.0541 23.7557 30.6267L25.5313 29.3419C25.6634 29.2464 25.8188 29.1987 25.9743 29.1987C26.1298 29.1987 26.2853 29.2464 26.4174 29.3419L28.193 30.6267C28.7837 31.0541 29.5785 30.4791 29.3528 29.7877L28.6747 27.7094C28.5738 27.4002 28.6843 27.0615 28.9485 26.8704L30.6898 25.586C31.2806 25.1587 30.977 24.1465 30.2468 24.1465Z" fill="white"/>
</mask>
<g mask="url(#mask0_388_117)">
<mask id="mask1_388_117" style="mask-type:luminance" maskUnits="userSpaceOnUse" x="0" y="0" width="39" height="39">
<path d="M0 3.8147e-06H39V39H0V3.8147e-06Z" fill="white"/>
</mask>
<g mask="url(#mask1_388_117)">
<path d="M37.4766 32.9062C37.4766 35.4304 35.4304 37.4766 32.9062 37.4766H6.09375C3.56964 37.4766 1.52344 35.4304 1.52344 32.9062V9.14062C1.52344 6.61652 3.56964 4.57031 6.09375 4.57031H32.9062C35.4304 4.57031 37.4766 6.61652 37.4766 9.14062V25.2891" stroke="white" stroke-width="3" stroke-miterlimit="10" stroke-linecap="round" stroke-linejoin="round"/>
<path d="M9.52148 14.4727C8.68009 14.4727 7.99805 15.1547 7.99805 15.9961C7.99805 16.8375 8.68009 17.5195 9.52148 17.5195C10.3629 17.5195 11.0449 16.8375 11.0449 15.9961C11.0449 15.1547 10.3629 14.4727 9.52148 14.4727Z" fill="white"/>
<path d="M16.1484 14.4727C15.307 14.4727 14.625 15.1547 14.625 15.9961C14.625 16.8375 15.307 17.5195 16.1484 17.5195C16.9898 17.5195 17.6719 16.8375 17.6719 15.9961C17.6719 15.1547 16.9898 14.4727 16.1484 14.4727Z" fill="white"/>
<path d="M22.7754 14.4727C21.934 14.4727 21.252 15.1547 21.252 15.9961C21.252 16.8375 21.934 17.5195 22.7754 17.5195C23.6168 17.5195 24.2988 16.8375 24.2988 15.9961C24.2988 15.1547 23.6168 14.4727 22.7754 14.4727Z" fill="white"/>
<path d="M29.4023 14.4727C28.5609 14.4727 27.8789 15.1547 27.8789 15.9961C27.8789 16.8375 28.5609 17.5195 29.4023 17.5195C30.2437 17.5195 30.9258 16.8375 30.9258 15.9961C30.9258 15.1547 30.2437 14.4727 29.4023 14.4727Z" fill="white"/>
<path d="M11.0449 22.623C11.0449 21.7817 10.3629 21.0996 9.52148 21.0996C8.68009 21.0996 7.99805 21.7817 7.99805 22.623C7.99805 23.4644 8.68009 24.1465 9.52148 24.1465C10.3629 24.1465 11.0449 23.4644 11.0449 22.623Z" fill="white"/>
<path d="M11.0449 29.25C11.0449 28.4086 10.3629 27.7266 9.52148 27.7266C8.68009 27.7266 7.99805 28.4086 7.99805 29.25C7.99805 30.0914 8.68009 30.7734 9.52148 30.7734C10.3629 30.7734 11.0449 30.0914 11.0449 29.25Z" fill="white"/>
<path d="M17.6719 22.623C17.6719 21.7817 16.9898 21.0996 16.1484 21.0996C15.307 21.0996 14.625 21.7817 14.625 22.623C14.625 23.4644 15.307 24.1465 16.1484 24.1465C16.9898 24.1465 17.6719 23.4644 17.6719 22.623Z" fill="white"/>
<path d="M17.6719 29.25C17.6719 28.4086 16.9898 27.7266 16.1484 27.7266C15.307 27.7266 14.625 28.4086 14.625 29.25C14.625 30.0914 15.307 30.7734 16.1484 30.7734C16.9898 30.7734 17.6719 30.0914 17.6719 29.25Z" fill="white"/>
<path d="M16.1484 14.4727C15.307 14.4727 14.625 15.1547 14.625 15.9961C14.625 16.8375 15.307 17.5195 16.1484 17.5195C16.9898 17.5195 17.6719 16.8375 17.6719 15.9961C17.6719 15.1547 16.9898 14.4727 16.1484 14.4727Z" fill="white"/>
<path d="M17.6719 22.623C17.6719 21.7817 16.9898 21.0996 16.1484 21.0996C15.307 21.0996 14.625 21.7817 14.625 22.623C14.625 23.4644 15.307 24.1465 16.1484 24.1465C16.9898 24.1465 17.6719 23.4644 17.6719 22.623Z" fill="white"/>
<path d="M17.6719 29.25C17.6719 28.4086 16.9898 27.7266 16.1484 27.7266C15.307 27.7266 14.625 28.4086 14.625 29.25C14.625 30.0914 15.307 30.7734 16.1484 30.7734C16.9898 30.7734 17.6719 30.0914 17.6719 29.25Z" fill="white"/>
<path d="M9.52148 1.52344V7.61719" stroke="white" stroke-width="3" stroke-miterlimit="10" stroke-linecap="round" stroke-linejoin="round"/>
<path d="M29.4023 7.61719V1.52344" stroke="white" stroke-width="3" stroke-miterlimit="10" stroke-linecap="round" stroke-linejoin="round"/>
<path d="M19.4238 1.52344V7.61719" stroke="white" stroke-width="3" stroke-miterlimit="10" stroke-linecap="round" stroke-linejoin="round"/>
<path d="M30.2468 24.1465H28.0863C27.7597 24.1465 27.4703 24.0191 27.3694 23.7099L26.6912 21.6182C26.5784 21.2724 26.2763 21.0996 25.9743 21.0996C25.6723 21.0996 25.3703 21.2724 25.2575 21.6182L24.5792 23.7099C24.4784 24.0191 24.1889 24.1465 23.8624 24.1465H21.705C20.9747 24.1465 20.6711 25.1587 21.2619 25.586L23.0002 26.8704C23.2643 27.0615 23.3749 27.4002 23.2739 27.7094L22.5958 29.7877C22.3702 30.4791 23.1649 31.0541 23.7557 30.6267L25.5313 29.3419C25.6634 29.2464 25.8188 29.1987 25.9743 29.1987C26.1298 29.1987 26.2853 29.2464 26.4174 29.3419L28.193 30.6267C28.7837 31.0541 29.5785 30.4791 29.3528 29.7877L28.6747 27.7094C28.5738 27.4002 28.6843 27.0615 28.9485 26.8704L30.6898 25.586C31.2806 25.1587 30.977 24.1465 30.2468 24.1465Z" fill="white"/>
</g>
</g>
</svg>
