<svg width="23" height="23" viewBox="0 0 23 23" fill="none" xmlns="http://www.w3.org/2000/svg">
<g clip-path="url(#clip0_388_18)">
<path d="M17.4864 15.215C16.7349 14.4731 15.7969 14.4731 15.0502 15.215C14.4807 15.7797 13.9112 16.3445 13.3512 16.9188C13.198 17.0768 13.0688 17.1103 12.8821 17.005C12.5136 16.8039 12.1212 16.6412 11.767 16.4211C10.1158 15.3825 8.73261 14.0472 7.50738 12.5443C6.89954 11.7977 6.35872 10.9984 5.98062 10.0986C5.90404 9.91678 5.9184 9.79713 6.06677 9.64876C6.63631 9.09836 7.19149 8.5336 7.75147 7.96884C8.5316 7.18392 8.5316 6.265 7.74668 5.47529C7.30158 5.0254 6.85647 4.58508 6.41136 4.13519C5.9519 3.67573 5.49722 3.21147 5.03297 2.7568C4.28156 2.02453 3.34348 2.02453 2.59686 2.76158C2.02253 3.32634 1.47213 3.90546 0.888224 4.46064C0.347396 4.97275 0.0745894 5.59973 0.0171564 6.332C-0.0737792 7.52374 0.218172 8.64847 0.629775 9.74448C1.47213 12.0131 2.7548 14.028 4.31027 15.8755C6.41136 18.3738 8.91927 20.3504 11.8531 21.7767C13.1741 22.418 14.5429 22.911 16.0314 22.9924C17.0556 23.0498 17.9458 22.7913 18.659 21.9921C19.1471 21.4465 19.6975 20.9487 20.2144 20.427C20.9802 19.6517 20.985 18.7136 20.224 17.9478C19.3146 17.0337 18.4005 16.1243 17.4864 15.215Z" fill="white"/>
<path d="M16.5719 11.4004L18.338 11.0989C18.0604 9.47644 17.2946 8.00711 16.1316 6.83931C14.9016 5.60928 13.3461 4.83394 11.6327 4.59464L11.3838 6.37027C12.7095 6.55693 13.9156 7.15519 14.8681 8.10762C15.7678 9.0074 16.3565 10.1465 16.5719 11.4004Z" fill="white"/>
<path d="M19.3338 3.72357C17.2949 1.6847 14.7152 0.397245 11.8675 0L11.6187 1.77564C14.0787 2.12023 16.309 3.23539 18.0703 4.99188C19.7406 6.66223 20.8366 8.77289 21.2339 11.0941L23 10.7926C22.5357 8.10284 21.2674 5.66194 19.3338 3.72357Z" fill="white"/>
</g>
<defs>
<clipPath id="clip0_388_18">
<rect width="23" height="23" fill="white"/>
</clipPath>
</defs>
</svg>
