<svg width="22" height="22" viewBox="0 0 22 22" fill="none" xmlns="http://www.w3.org/2000/svg">
<g clip-path="url(#clip0_388_40)">
<path d="M19.3895 15.2349C22.87 11.7543 22.87 6.09096 19.3895 2.61037C15.909 -0.870206 10.2457 -0.870206 6.76515 2.61037C3.81235 5.56317 3.36515 9.95474 5.42235 13.3841C5.42235 13.3841 5.57011 13.632 5.37054 13.8314C4.23199 14.9699 0.81611 18.3859 0.81611 18.3859C-0.09041 19.2923 -0.306214 20.5598 0.497684 21.3639L0.636096 21.5022C1.43999 22.3062 2.70761 22.0905 3.61405 21.1839C3.61405 21.1839 7.0227 17.7752 8.15892 16.6391C8.36806 16.4299 8.6159 16.5777 8.6159 16.5777C12.0452 18.6348 16.4367 18.1877 19.3895 15.2349ZM8.4132 13.5868C5.84141 11.015 5.84148 6.83043 8.41328 4.25864C10.9851 1.68692 15.1696 1.68685 17.7413 4.25864C20.3131 6.83036 20.3131 11.015 17.7413 13.5868C15.1695 16.1584 10.9851 16.1584 8.4132 13.5868Z" fill="white"/>
<path d="M8.98272 8.39293C8.86301 8.39293 8.74133 8.3694 8.62403 8.31986C8.1555 8.12156 7.93629 7.58095 8.13459 7.11234C9.38094 4.16699 12.7911 2.78478 15.7364 4.03113C16.2049 4.22942 16.4241 4.77003 16.2258 5.23864C16.0274 5.70724 15.487 5.92631 15.0182 5.72808C13.0087 4.87776 10.6819 5.82085 9.83162 7.83035C9.68286 8.1818 9.34168 8.39293 8.98272 8.39293Z" fill="white"/>
</g>
<defs>
<clipPath id="clip0_388_40">
<rect width="22" height="22" fill="white"/>
</clipPath>
</defs>
</svg>
