<svg width="42" height="42" viewBox="0 0 42 42" fill="none" xmlns="http://www.w3.org/2000/svg">
<g clip-path="url(#clip0_388_123)">
<path d="M38.6291 27.2221L40.2236 24.5629L37.1246 21.4639L34.4654 23.0584C33.5377 22.6186 32.574 22.3519 31.5839 22.2641L30.0939 19.5796L25.8617 20.714L25.9134 23.819C25.1011 24.391 24.3909 25.1012 23.819 25.9134L20.7139 25.8618L19.5796 30.0939L22.2641 31.5863C22.3518 32.574 22.6185 33.539 23.0584 34.4654L21.4638 37.1246L24.5628 40.2236L27.222 38.6291C28.1497 39.0689 29.1134 39.3356 30.1035 39.4234L31.5936 42L35.8257 40.8657L35.774 37.8685C36.5863 37.2965 37.2965 36.5864 37.8685 35.7741L40.8656 35.8258L42 31.5936L39.4234 30.1012C39.3357 29.1134 39.0689 28.1485 38.6291 27.2221ZM30.8437 34.5352C28.8082 34.5352 27.1523 32.8793 27.1523 30.8438C27.1523 28.8082 28.8082 27.1523 30.8437 27.1523C32.8792 27.1523 34.5351 28.8082 34.5351 30.8438C34.5351 32.8793 32.8792 34.5352 30.8437 34.5352Z" fill="white"/>
<path d="M30.8438 32.0742C31.5233 32.0742 32.0742 31.5233 32.0742 30.8438C32.0742 30.1642 31.5233 29.6133 30.8438 29.6133C30.1642 29.6133 29.6133 30.1642 29.6133 30.8438C29.6133 31.5233 30.1642 32.0742 30.8438 32.0742Z" fill="white"/>
<path d="M13.6172 17.3086C15.6559 17.3086 17.3086 15.6559 17.3086 13.6172C17.3086 11.5785 15.6559 9.92578 13.6172 9.92578C11.5785 9.92578 9.92578 11.5785 9.92578 13.6172C9.92578 15.6559 11.5785 17.3086 13.6172 17.3086Z" fill="white"/>
<path d="M24.7371 21.6393L23.2254 19.1171C23.6917 18.3036 24.0498 17.436 24.2972 16.5227L27.1523 15.8077V11.4266L24.2972 10.7116C24.0497 9.79839 23.6916 8.93082 23.2254 8.11732L24.7371 5.59511L21.6393 2.49728L19.1171 4.00895C18.3036 3.54268 17.436 3.18462 16.5227 2.93713L15.8077 0H11.4266L10.7116 2.93713C9.79839 3.1847 8.93082 3.54277 8.11732 4.00895L5.59511 2.49728L2.49728 5.59511L4.00895 8.11732C3.54268 8.93082 3.18462 9.79839 2.93713 10.7116L0 11.4266V15.8077L2.93713 16.5227C3.1847 17.436 3.54277 18.3036 4.00895 19.1171L2.49728 21.6393L5.59511 24.7371L8.11732 23.2254C8.93082 23.6917 9.79839 24.0498 10.7116 24.2972L11.4266 27.1523H15.8077L16.5227 24.2972C17.436 24.0497 18.3036 23.6916 19.1171 23.2254L21.6393 24.7371L24.7371 21.6393ZM13.6172 19.7695C10.2249 19.7695 7.46484 17.0094 7.46484 13.6172C7.46484 10.2249 10.2249 7.46484 13.6172 7.46484C17.0094 7.46484 19.7695 10.2249 19.7695 13.6172C19.7695 17.0094 17.0094 19.7695 13.6172 19.7695Z" fill="white"/>
</g>
<defs>
<clipPath id="clip0_388_123">
<rect width="42" height="42" fill="white"/>
</clipPath>
</defs>
</svg>
