<svg width="35" height="35" viewBox="0 0 35 35" fill="none" xmlns="http://www.w3.org/2000/svg">
<g clip-path="url(#clip0_388_119)">
<path d="M5.19531 16.4062C6.02257 16.4062 6.77132 16.0743 7.3246 15.5413L10.3599 17.0589C10.3447 17.1825 10.3223 17.304 10.3223 17.4316C10.3223 19.1278 11.7023 20.5078 13.3984 20.5078C15.0946 20.5078 16.4746 19.1278 16.4746 17.4316C16.4746 16.9582 16.3582 16.5149 16.1662 16.1139L20.2838 11.9963C20.6849 12.1883 21.1281 12.3047 21.6016 12.3047C23.2977 12.3047 24.6777 10.9247 24.6777 9.22852C24.6777 8.90915 24.615 8.60714 24.5242 8.31741L28.1018 5.63484C28.59 5.96088 29.175 6.15234 29.8047 6.15234C31.5009 6.15234 32.8809 4.77234 32.8809 3.07617C32.8809 1.38 31.5009 0 29.8047 0C28.1085 0 26.7285 1.38 26.7285 3.07617C26.7285 3.39554 26.7913 3.69755 26.8821 3.98727L23.3044 6.66985C22.8163 6.3438 22.2312 6.15234 21.6016 6.15234C19.9054 6.15234 18.5254 7.53235 18.5254 9.22852C18.5254 9.70196 18.6418 10.1452 18.8338 10.5463L14.7162 14.6639C14.3151 14.4719 13.8719 14.3555 13.3984 14.3555C12.5712 14.3555 11.8224 14.6874 11.2691 15.2204L8.23383 13.7029C8.24905 13.5792 8.27148 13.4577 8.27148 13.3301C8.27148 11.6339 6.89148 10.2539 5.19531 10.2539C3.49915 10.2539 2.11914 11.6339 2.11914 13.3301C2.11914 15.0262 3.49915 16.4062 5.19531 16.4062Z" fill="white"/>
<path d="M33.9746 32.9492H32.8809V11.2793C32.8809 10.7127 32.4221 10.2539 31.8555 10.2539H27.7539C27.1873 10.2539 26.7285 10.7127 26.7285 11.2793V32.9492H24.6777V17.4316C24.6777 16.865 24.219 16.4062 23.6523 16.4062H19.5508C18.9841 16.4062 18.5254 16.865 18.5254 17.4316V32.9492H16.4746V25.6348C16.4746 25.0681 16.0159 24.6094 15.4492 24.6094H11.3477C10.781 24.6094 10.3223 25.0681 10.3223 25.6348V32.9492H8.27148V21.5332C8.27148 20.9666 7.81273 20.5078 7.24609 20.5078H3.14453C2.5779 20.5078 2.11914 20.9666 2.11914 21.5332V32.9492H1.02539C0.458756 32.9492 0 33.408 0 33.9746C0 34.5412 0.458756 35 1.02539 35H33.9746C34.5412 35 35 34.5412 35 33.9746C35 33.408 34.5412 32.9492 33.9746 32.9492Z" fill="white"/>
</g>
<defs>
<clipPath id="clip0_388_119">
<rect width="35" height="35" fill="white"/>
</clipPath>
</defs>
</svg>
