<svg width="38" height="38" viewBox="0 0 38 38" fill="none" xmlns="http://www.w3.org/2000/svg">
<path fill-rule="evenodd" clip-rule="evenodd" d="M13.854 20.5833V17.4167C13.854 16.4714 14.2293 15.5657 14.8974 14.8976C15.5656 14.2294 16.4713 13.8542 17.4165 13.8542H20.5832C21.5284 13.8542 22.4341 14.2294 23.1023 14.8976C23.7704 15.5657 24.1457 16.4714 24.1457 17.4167V20.5833C24.1457 21.5286 23.7704 22.4342 23.1023 23.1024C22.4341 23.7706 21.5284 24.1458 20.5832 24.1458H17.4165C16.4713 24.1458 15.5656 23.7706 14.8974 23.1024C14.2293 22.4342 13.854 21.5286 13.854 20.5833Z" fill="white"/>
<path fill-rule="evenodd" clip-rule="evenodd" d="M1.979 32.4583V29.2917C1.979 28.3464 2.35425 27.4408 3.02242 26.7726C3.69059 26.1044 4.59625 25.7292 5.5415 25.7292H8.70817C9.65342 25.7292 10.5591 26.1044 11.2273 26.7726C11.8954 27.4408 12.2707 28.3464 12.2707 29.2917V32.4583C12.2707 33.4036 11.8954 34.3093 11.2273 34.9774C10.5591 35.6456 9.65342 36.0208 8.70817 36.0208H5.5415C4.59625 36.0208 3.69059 35.6456 3.02242 34.9774C2.35425 34.3093 1.979 33.4036 1.979 32.4583Z" fill="white"/>
<path fill-rule="evenodd" clip-rule="evenodd" d="M25.729 8.70834V5.54167C25.729 4.59642 26.1043 3.69075 26.7724 3.02259C27.4406 2.35442 28.3463 1.97917 29.2915 1.97917H32.4582C33.4034 1.97917 34.3091 2.35442 34.9773 3.02259C35.6454 3.69075 36.0207 4.59642 36.0207 5.54167V8.70834C36.0207 9.65359 35.6454 10.5593 34.9773 11.2274C34.3091 11.8956 33.4034 12.2708 32.4582 12.2708H29.2915C28.3463 12.2708 27.4406 11.8956 26.7724 11.2274C26.1043 10.5593 25.729 9.65359 25.729 8.70834Z" fill="white"/>
<path fill-rule="evenodd" clip-rule="evenodd" d="M11.083 29.6875H31.6663C32.192 29.6875 32.6939 29.4785 33.066 29.108C33.4365 28.7359 33.6455 28.234 33.6455 27.7083V22.1667C33.6455 21.641 33.4365 21.1391 33.066 20.767C32.6939 20.3965 32.192 20.1875 31.6663 20.1875H26.9163C26.2608 20.1875 25.7288 19.6555 25.7288 19C25.7288 18.3445 26.2608 17.8125 26.9163 17.8125H31.6663C32.8206 17.8125 33.9289 18.2717 34.7459 19.0871C35.5613 19.9041 36.0205 21.0124 36.0205 22.1667C36.0205 23.8814 36.0205 25.9936 36.0205 27.7083C36.0205 28.8626 35.5613 29.9709 34.7459 30.7879C33.9289 31.6033 32.8206 32.0625 31.6663 32.0625C25.2 32.0625 11.083 32.0625 11.083 32.0625C10.4275 32.0625 9.89551 31.5305 9.89551 30.875C9.89551 30.2195 10.4275 29.6875 11.083 29.6875Z" fill="white"/>
<path fill-rule="evenodd" clip-rule="evenodd" d="M20.5832 8.3125H6.33317C5.8075 8.3125 5.30559 8.5215 4.9335 8.892C4.563 9.26408 4.354 9.766 4.354 10.2917C4.354 12.0064 4.354 14.1186 4.354 15.8333C4.354 16.359 4.563 16.8609 4.9335 17.233C5.30559 17.6035 5.8075 17.8125 6.33317 17.8125H15.0415C15.697 17.8125 16.229 18.3445 16.229 19C16.229 19.6555 15.697 20.1875 15.0415 20.1875H6.33317C5.17892 20.1875 4.07059 19.7283 3.25359 18.9129C2.43817 18.0959 1.979 16.9876 1.979 15.8333V10.2917C1.979 9.13742 2.43817 8.02908 3.25359 7.21208C4.07059 6.39667 5.17892 5.9375 6.33317 5.9375H20.5832C21.2387 5.9375 21.7707 6.4695 21.7707 7.125C21.7707 7.7805 21.2387 8.3125 20.5832 8.3125Z" fill="white"/>
<path fill-rule="evenodd" clip-rule="evenodd" d="M30.9224 16.6725L28.5965 19L30.9224 21.3275C31.3863 21.7898 31.3863 22.5435 30.9224 23.0058C30.4601 23.4698 29.7064 23.4698 29.2441 23.0058L26.0774 19.8392C25.6135 19.3753 25.6135 18.6248 26.0774 18.1608L29.2441 14.9942C29.7064 14.5303 30.4601 14.5303 30.9224 14.9942C31.3863 15.4565 31.3863 16.2102 30.9224 16.6725Z" fill="white"/>
<path fill-rule="evenodd" clip-rule="evenodd" d="M19.8388 3.11917L23.0054 6.28583C23.4694 6.74975 23.4694 7.50025 23.0054 7.96417L19.8388 11.1308C19.3764 11.5948 18.6228 11.5948 18.1604 11.1308C17.6965 10.6685 17.6965 9.91483 18.1604 9.4525L20.4864 7.125L18.1604 4.7975C17.6965 4.33517 17.6965 3.5815 18.1604 3.11917C18.6228 2.65525 19.3764 2.65525 19.8388 3.11917Z" fill="white"/>
</svg>
