<svg width="60" height="60" viewBox="0 0 60 60" fill="none" xmlns="http://www.w3.org/2000/svg">
<g clip-path="url(#clip0_640_235)">
<path d="M33.7196 43.2402H20.2561C19.6045 43.2402 19.0762 43.7686 19.0762 44.4204C19.0762 45.0722 19.6045 45.6006 20.2561 45.6006H33.7196C34.3712 45.6006 34.8995 45.0722 34.8995 44.4204C34.8996 43.7686 34.3712 43.2402 33.7196 43.2402Z" fill="#273B98"/>
<path d="M13.96 50.4712C13.96 51.123 14.4882 51.6514 15.1399 51.6514H21.7273C22.3789 51.6514 22.9072 51.123 22.9072 50.4712C22.9072 49.8194 22.3789 49.291 21.7273 49.291H15.1399C14.4882 49.291 13.96 49.8194 13.96 50.4712Z" fill="#273B98"/>
<path d="M31.0693 50.4712C31.0693 51.123 31.5977 51.6514 32.2493 51.6514H38.8366C39.4883 51.6514 40.0166 51.123 40.0166 50.4712C40.0166 49.8194 39.4882 49.291 38.8366 49.291H32.2493C31.5977 49.291 31.0693 49.8194 31.0693 50.4712Z" fill="#273B98"/>
<path d="M26.9768 49.291C26.3252 49.291 25.7969 49.8194 25.7969 50.4712C25.7969 51.123 26.3252 51.6514 26.9768 51.6514H27C27.6517 51.6514 28.18 51.123 28.18 50.4712C28.18 49.8194 27.6517 49.291 27 49.291H26.9768Z" fill="#273B98"/>
<path d="M3.02469 19.516C3.67637 19.516 4.20465 18.9876 4.20465 18.3358V18.3125C4.20465 17.6607 3.67637 17.1323 3.02469 17.1323C2.37301 17.1323 1.84473 17.6607 1.84473 18.3125V18.3358C1.84473 18.9876 2.37301 19.516 3.02469 19.516Z" fill="#273B98"/>
<path d="M56.7666 46.5582L51.4646 41.2563V11.3718C51.4646 11.334 51.4625 11.2965 51.4589 11.2591C51.4573 11.2434 51.4546 11.2281 51.4527 11.2126C51.4498 11.1916 51.447 11.1708 51.4432 11.15C51.4395 11.1313 51.435 11.1129 51.4305 11.0945C51.4264 11.0776 51.4223 11.0607 51.4175 11.0441C51.4119 11.0246 51.4055 11.0055 51.3989 10.9864C51.3936 10.9712 51.3881 10.956 51.3822 10.9409C51.3748 10.922 51.367 10.9034 51.3586 10.885C51.3518 10.87 51.3445 10.8551 51.3371 10.8403C51.3283 10.823 51.3193 10.8056 51.3097 10.7888C51.3009 10.7733 51.2915 10.7583 51.282 10.7432C51.2723 10.7278 51.2628 10.7125 51.2524 10.6976C51.2411 10.6815 51.2292 10.6659 51.2171 10.6504C51.207 10.6373 51.1972 10.6242 51.1866 10.6116C51.1837 10.608 51.1812 10.6044 51.1783 10.6009L42.393 0.40957C42.3855 0.400898 42.377 0.393281 42.3692 0.384844C42.3523 0.366445 42.3354 0.348164 42.3173 0.33082C42.3052 0.319219 42.2928 0.308203 42.2803 0.297188C42.2623 0.281367 42.2442 0.265898 42.2253 0.251133C42.2124 0.241055 42.1993 0.231328 42.1861 0.221719C42.1659 0.207305 42.1453 0.193594 42.1243 0.180352C42.1115 0.172383 42.0987 0.164414 42.0857 0.156914C42.0625 0.143672 42.0387 0.131367 42.0146 0.119648C42.0027 0.113906 41.9911 0.107813 41.979 0.102422C41.9524 0.0905859 41.9252 0.0801563 41.8977 0.0703125C41.887 0.0664453 41.8767 0.0622266 41.866 0.0587109C41.8365 0.0491016 41.8062 0.0411328 41.7758 0.03375C41.7663 0.0314062 41.7569 0.0284766 41.7474 0.0264844C41.7154 0.0195703 41.6827 0.0146484 41.6498 0.0105469C41.6414 0.00949219 41.633 0.00761719 41.6246 0.00667969C41.5834 0.00246094 41.5416 0 41.4993 0H7.1218C4.21203 0 1.84473 2.36918 1.84473 5.28141V13.0521C1.84473 13.7039 2.37301 14.2323 3.02469 14.2323C3.67637 14.2323 4.20465 13.7039 4.20465 13.0521V5.28141C4.20465 3.67066 5.51328 2.36039 7.1218 2.36039H40.3194V9.96715C40.3194 11.3925 41.4802 12.5521 42.9071 12.5521H49.1046V38.8964L46.5125 36.3043C46.5061 36.2975 46.5004 36.2903 46.4939 36.2837C46.4872 36.277 46.4799 36.2714 46.4731 36.265L40.9092 30.7011C42.0475 28.5272 42.6927 26.0559 42.6927 23.4364C42.6927 14.7764 35.6485 7.73098 26.99 7.73098C18.3297 7.73098 11.2842 14.7764 11.2842 23.4364C11.2842 27.57 12.8895 31.335 15.5083 34.1427C15.5622 34.2148 15.6246 34.2807 15.6948 34.3396C18.5529 37.3005 22.5598 39.1453 26.9901 39.1453C29.6081 39.1453 32.0778 38.5002 34.2505 37.362L39.8124 42.926C39.8191 42.933 39.8248 42.9405 39.8318 42.9473C39.8386 42.9541 39.8461 42.9599 39.853 42.9666L49.1047 52.2219V54.7187C49.1047 56.3295 47.7961 57.6397 46.1875 57.6397H7.1218C5.51328 57.6397 4.20465 56.3293 4.20465 54.7187V23.5726C4.20465 22.9208 3.67637 22.3924 3.02469 22.3924C2.37301 22.3924 1.84473 22.9208 1.84473 23.5726V54.7186C1.84473 57.6308 4.21203 60 7.1218 60H46.1875C49.0973 60 51.4646 57.6308 51.4646 54.7186V54.2295C52.1113 54.5609 52.7673 54.7082 53.4011 54.7082C54.6561 54.708 55.8242 54.1362 56.6594 53.3003C58.3189 51.6397 58.9204 48.7125 56.7666 46.5582ZM42.6794 9.96715V4.35645L47.7093 10.1917H42.9072C42.7837 10.1917 42.6794 10.0888 42.6794 9.96715ZM26.99 10.0912C34.3471 10.0912 40.3326 16.0779 40.3326 23.4363C40.3326 25.8748 39.6751 28.1624 38.529 30.1317C38.4457 30.2304 38.3807 30.3393 38.3349 30.4541C38.1027 30.8284 37.8525 31.1905 37.5855 31.539C36.1827 28.944 33.896 26.9638 31.1895 25.9236C32.7883 24.6381 33.8144 22.6676 33.8144 20.4608C33.8144 16.5947 30.6711 13.4493 26.8074 13.4493C22.942 13.4493 19.7971 16.5946 19.7971 20.4608C19.7971 22.6652 20.8215 24.6341 22.4183 25.9198C21.4886 26.2767 20.6001 26.7472 19.7709 27.3298C18.2872 28.3723 17.0698 29.7101 16.1817 31.2573C14.5863 29.0578 13.644 26.3552 13.644 23.4362C13.644 16.0779 19.631 10.0912 26.99 10.0912ZM22.157 20.4609C22.157 17.8963 24.2431 15.8098 26.8073 15.8098C29.3697 15.8098 31.4544 17.8963 31.4544 20.4609C31.4544 23.0238 29.3698 25.1088 26.8073 25.1088C24.2431 25.1088 22.157 23.0237 22.157 20.4609ZM17.8515 33.155C19.4674 29.7252 22.9755 27.4691 26.8073 27.4691C30.7508 27.4691 34.3007 29.8205 35.8667 33.3928C35.289 33.9089 34.6661 34.3755 34.0051 34.7861C33.8888 34.8322 33.7787 34.898 33.6789 34.9825C31.7111 36.1279 29.4259 36.7848 26.9899 36.7848C23.4573 36.7848 20.2413 35.4043 17.8515 33.155ZM37.9791 34.6455C38.0602 34.5831 38.132 34.511 38.1932 34.4314C38.7079 33.9067 39.1863 33.3463 39.624 32.7539L43.9896 37.1194L40.667 40.4427L36.3024 36.0764C36.8946 35.6386 37.4547 35.1602 37.9791 34.6455ZM54.9903 51.6315C54.2323 52.3901 52.989 52.7677 51.773 51.5529L42.3355 42.1117L45.6584 38.7881L49.4284 42.558C49.4432 42.5736 49.4584 42.5889 49.4741 42.6038L55.0979 48.2275C56.3067 49.4365 55.6959 50.9256 54.9903 51.6315Z" fill="#273B98"/>
</g>
<defs>
<clipPath id="clip0_640_235">
<rect width="60" height="60" fill="white"/>
</clipPath>
</defs>
</svg>
