<svg width="58" height="58" viewBox="0 0 58 58" fill="none" xmlns="http://www.w3.org/2000/svg">
<g clip-path="url(#clip0_637_131)">
<path d="M15.4666 29H14.4032C14.0431 29.0009 13.6912 29.1077 13.3913 29.3071C13.0914 29.5065 12.8567 29.7896 12.7164 30.1213C12.5731 30.4596 12.5327 30.8325 12.6002 31.1936C12.6678 31.5547 12.8404 31.8878 13.0963 32.1513L17.0674 36.1814C17.236 36.3552 17.4378 36.4934 17.6608 36.5877C17.8838 36.6821 18.1235 36.7307 18.3656 36.7307C18.6078 36.7307 18.8474 36.6821 19.0705 36.5877C19.2935 36.4934 19.4952 36.3552 19.6638 36.1814L22.0177 33.7927C25.5359 36.9301 30.0851 38.6639 34.7989 38.6639C39.5128 38.6639 44.062 36.9301 47.5802 33.7927L49.9321 36.1785C50.1004 36.3539 50.3024 36.4934 50.526 36.5888C50.7496 36.6841 50.9902 36.7333 51.2332 36.7333C51.4753 36.7337 51.7149 36.6853 51.9378 36.591C52.1607 36.4966 52.3623 36.3583 52.5305 36.1843L56.5093 32.1455C56.7635 31.8821 56.9345 31.5497 57.0009 31.1897C57.0672 30.8296 57.026 30.4581 56.8824 30.1213C56.7422 29.7898 56.5077 29.5067 56.208 29.3074C55.9083 29.108 55.5565 29.0011 55.1966 29H54.1332V22.2333C54.1319 21.9964 54.0867 21.7617 53.9998 21.5412C54.0881 20.8085 54.1326 20.0713 54.1332 19.3333C54.1332 14.2058 52.0963 9.28831 48.4706 5.6626C44.8449 2.0369 39.9274 0 34.7999 0C29.6724 0 24.7549 2.0369 21.1292 5.6626C17.5035 9.28831 15.4666 14.2058 15.4666 19.3333C15.4675 20.0713 15.5124 20.8086 15.6009 21.5412C15.5137 21.7616 15.4682 21.9963 15.4666 22.2333V29ZM18.3917 34.7729L14.5531 30.9333H16.4332C16.6896 30.9333 16.9355 30.8315 17.1168 30.6502C17.2981 30.4689 17.3999 30.223 17.3999 29.9667V22.2333H19.3332V29.9667C19.3332 30.223 19.4351 30.4689 19.6164 30.6502C19.7977 30.8315 20.0435 30.9333 20.2999 30.9333H22.1259L18.3917 34.7729ZM54.9926 30.9333L51.2584 34.7739L47.4188 30.9333H49.2999C49.5563 30.9333 49.8022 30.8315 49.9834 30.6502C50.1647 30.4689 50.2666 30.223 50.2666 29.9667V22.2333H52.1999V29.9667C52.1999 30.223 52.3018 30.4689 52.483 30.6502C52.6643 30.8315 52.9102 30.9333 53.1666 30.9333H54.9926ZM34.7999 1.93333C39.413 1.93871 43.8357 3.77364 47.0976 7.03561C50.3596 10.2976 52.1945 14.7202 52.1999 19.3333C52.1999 19.663 52.1864 19.9829 52.169 20.3H50.2666C49.7538 20.3 49.2621 20.5037 48.8995 20.8663C48.5369 21.2288 48.3332 21.7206 48.3332 22.2333V29H47.2699C46.9098 29.0009 46.5579 29.1077 46.2579 29.3071C45.958 29.5065 45.7233 29.7896 45.5831 30.1213C45.4397 30.4596 45.3993 30.8325 45.4669 31.1936C45.5345 31.5547 45.707 31.8878 45.963 32.1513L46.2249 32.4162C43.0687 35.1972 39.0065 36.7314 34.7999 36.7314C30.5933 36.7314 26.5311 35.1972 23.3749 32.4162L23.6426 32.1446C23.8982 31.8808 24.07 31.5473 24.1366 31.1861C24.2031 30.8249 24.1615 30.4521 24.0167 30.1146C23.8755 29.7841 23.6403 29.5024 23.3405 29.3043C23.0407 29.1062 22.6893 29.0004 22.3299 29H21.2666V22.2333C21.2666 21.7206 21.0629 21.2288 20.7003 20.8663C20.3377 20.5037 19.846 20.3 19.3332 20.3H17.4308C17.4134 19.9829 17.3999 19.663 17.3999 19.3333C17.4053 14.7202 19.2402 10.2976 22.5022 7.03561C25.7642 3.77364 30.1868 1.93871 34.7999 1.93333Z" fill="#273B98"/>
<path d="M51.6287 38.6058L43.7629 45.1898C43.3844 44.6634 42.8854 44.2353 42.3075 43.9413C41.7297 43.6474 41.0898 43.4961 40.4415 43.5001C30.4587 43.4401 30.4307 43.6499 30.0363 43.3251C28.6553 42.1882 26.9221 41.5666 25.1333 41.5667C21.5899 41.6288 18.109 42.5102 14.963 44.1419C14.7833 43.9404 14.5631 43.779 14.3167 43.6684C14.0703 43.5578 13.8034 43.5004 13.5333 43.5001H1.93333C1.42058 43.5001 0.92883 43.7038 0.56626 44.0663C0.20369 44.4289 0 44.9206 0 45.4334L0 56.0667C0 56.5795 0.20369 57.0712 0.56626 57.4338C0.92883 57.7964 1.42058 58.0001 1.93333 58.0001H13.5333C13.8483 57.9998 14.1584 57.9226 14.4367 57.7752C14.715 57.6278 14.9531 57.4146 15.1303 57.1542C19.7261 57.7797 24.3622 58.0624 29 58.0001H41.5957C42.8148 57.9649 43.9732 57.4595 44.8282 56.5897L56.8932 44.313C57.5948 43.6019 57.9956 42.6479 58.0123 41.649C58.0289 40.6501 57.6602 39.6832 56.9826 38.9492C56.305 38.2151 55.3706 37.7702 54.3736 37.707C53.3766 37.6438 52.3936 37.9671 51.6287 38.6097V38.6058ZM13.5333 56.0667H1.93333V45.4334H13.5333V56.0667ZM55.5137 42.9529L43.4507 55.2296C42.9532 55.7399 42.2788 56.0396 41.5667 56.0667H29C24.475 56.1224 19.9519 55.8488 15.4667 55.248V46.0453C18.444 44.4488 21.7558 43.5768 25.1333 43.5001C26.4745 43.4926 27.7752 43.9585 28.8067 44.8157C29.3124 45.222 29.9434 45.4403 30.5921 45.4334H40.4415C40.9577 45.4186 41.4604 45.5997 41.8485 45.9405C42.2366 46.2812 42.4813 46.7563 42.5333 47.2701C42.5464 47.532 42.5061 47.7938 42.4149 48.0396C42.3236 48.2855 42.1833 48.5102 42.0024 48.7001C41.8216 48.89 41.604 49.0411 41.3629 49.1442C41.1218 49.2474 40.8622 49.3004 40.6 49.3001H29.9667C29.7103 49.3001 29.4644 49.4019 29.2831 49.5832C29.1018 49.7645 29 50.0104 29 50.2667C29 50.5231 29.1018 50.769 29.2831 50.9503C29.4644 51.1316 29.7103 51.2334 29.9667 51.2334H40.6C41.1247 51.235 41.6443 51.1296 42.1269 50.9237C42.6096 50.7177 43.0452 50.4155 43.4071 50.0355C43.769 49.6555 44.0496 49.2057 44.2317 48.7136C44.4139 48.2215 44.4939 47.6974 44.4667 47.1734C44.4667 47.1599 44.4667 47.1483 44.4609 47.1347L52.8709 40.0935C53.0669 39.9284 53.2936 39.8038 53.538 39.7267C53.7824 39.6496 54.0396 39.6216 54.2949 39.6443C54.5502 39.667 54.7984 39.74 55.0253 39.8591C55.2523 39.9782 55.4534 40.141 55.6172 40.3381C55.9222 40.7114 56.0801 41.1834 56.061 41.6651C56.042 42.1468 55.8473 42.6049 55.5137 42.9529Z" fill="#273B98"/>
<path d="M30.9333 24.1666C30.9333 23.9102 30.8315 23.6644 30.6502 23.4831C30.4689 23.3018 30.223 23.1999 29.9667 23.1999C29.7103 23.1999 29.4644 23.3018 29.2831 23.4831C29.1018 23.6644 29 23.9102 29 24.1666C29.0025 25.5359 29.489 26.8603 30.3734 27.9057C31.2579 28.9511 32.4833 29.6502 33.8333 29.8796V30.9333C33.8333 31.1896 33.9352 31.4355 34.1165 31.6168C34.2977 31.7981 34.5436 31.8999 34.8 31.8999C35.0564 31.8999 35.3023 31.7981 35.4835 31.6168C35.6648 31.4355 35.7667 31.1896 35.7667 30.9333V29.8796C37.1176 29.6524 38.3443 28.9538 39.229 27.9079C40.1136 26.862 40.5991 25.5365 40.5991 24.1666C40.5991 22.7967 40.1136 21.4712 39.229 20.4253C38.3443 19.3794 37.1176 18.6808 35.7667 18.4536V10.7705C36.5943 10.9842 37.3278 11.4661 37.8524 12.1409C38.3771 12.8156 38.6635 13.6452 38.6667 14.4999C38.6667 14.7563 38.7685 15.0022 38.9498 15.1835C39.1311 15.3648 39.377 15.4666 39.6333 15.4666C39.8897 15.4666 40.1356 15.3648 40.3169 15.1835C40.4982 15.0022 40.6 14.7563 40.6 14.4999C40.5975 13.1306 40.111 11.8062 39.2266 10.7608C38.3421 9.71544 37.1167 9.0163 35.7667 8.78694V7.73327C35.7667 7.47689 35.6648 7.23102 35.4835 7.04973C35.3023 6.86845 35.0564 6.7666 34.8 6.7666C34.5436 6.7666 34.2977 6.86845 34.1165 7.04973C33.9352 7.23102 33.8333 7.47689 33.8333 7.73327V8.78694C32.4824 9.01413 31.2557 9.71269 30.371 10.7586C29.4864 11.8045 29.0009 13.1301 29.0009 14.4999C29.0009 15.8698 29.4864 17.1954 30.371 18.2413C31.2557 19.2872 32.4824 19.9857 33.8333 20.2129V27.896C33.0057 27.6823 32.2722 27.2004 31.7476 26.5257C31.2229 25.8509 30.9365 25.0213 30.9333 24.1666ZM38.6667 24.1666C38.6635 25.0213 38.3771 25.8509 37.8524 26.5257C37.3278 27.2004 36.5943 27.6823 35.7667 27.896V20.4372C36.5943 20.6509 37.3278 21.1328 37.8524 21.8075C38.3771 22.4823 38.6635 23.3119 38.6667 24.1666ZM30.9333 14.4999C30.9365 13.6452 31.2229 12.8156 31.7476 12.1409C32.2722 11.4661 33.0057 10.9842 33.8333 10.7705V18.2293C33.0057 18.0157 32.2722 17.5338 31.7476 16.859C31.2229 16.1843 30.9365 15.3547 30.9333 14.4999Z" fill="#273B98"/>
</g>
<defs>
<clipPath id="clip0_637_131">
<rect width="58" height="58" fill="white"/>
</clipPath>
</defs>
</svg>
