<svg width="51" height="50" viewBox="0 0 51 50" fill="none" xmlns="http://www.w3.org/2000/svg">
<g clip-path="url(#clip0_637_135)">
<path d="M9.0906 36.9346C7.12363 36.9346 5.52344 38.5034 5.52344 40.4318C5.70274 45.0645 12.4782 45.0643 12.6568 40.4318C12.6568 38.5034 11.057 36.9346 9.0906 36.9346ZM9.0906 41.9758C8.22217 41.9758 7.51571 41.2831 7.51571 40.4317C7.5949 38.3867 10.5857 38.3863 10.6645 40.4317C10.6645 41.2831 9.95843 41.9758 9.0906 41.9758Z" fill="#273B98"/>
<path d="M17.5365 39.4588C18.2457 38.7429 18.3852 37.6389 17.876 36.7748L16.7142 34.8005C16.2049 33.9362 15.1599 33.5029 14.1734 33.7472L13.1113 34.009C12.9548 34.0471 12.7977 33.9587 12.7535 33.807L12.454 32.775C12.1766 31.8144 11.2712 31.1436 10.2523 31.1436H7.92835C6.9113 31.1436 6.00621 31.8137 5.72709 32.7738L5.42736 33.8067C5.38323 33.9587 5.22584 34.0475 5.06935 34.0089L4.00816 33.7474C3.0199 33.5033 1.97495 33.9366 1.46752 34.8007L0.305034 36.7743C-0.204488 37.6389 -0.0650295 38.7428 0.643621 39.4583L1.40696 40.2301C1.51892 40.3431 1.51892 40.5205 1.40666 40.6339L0.644218 41.4048C-0.0650295 42.1209 -0.204488 43.2248 0.304935 44.0893L1.46683 46.0618C1.97495 46.9271 3.02 47.3605 4.00737 47.1165L5.06935 46.8547C5.22564 46.8159 5.38313 46.905 5.42726 47.0566L5.7267 48.0887C6.00392 49.0487 6.90931 49.7191 7.92835 49.7191H10.2523C11.2713 49.7191 12.1767 49.0487 12.4536 48.0898L12.7533 47.0569C12.7975 46.9048 12.9548 46.8159 13.1114 46.8546L14.1726 47.1162C15.1596 47.3604 16.2048 46.9271 16.7145 46.0625L17.8758 44.0893C18.3852 43.2246 18.2457 42.1207 17.5375 41.4057L16.7754 40.6343C16.7752 40.6341 16.775 40.6339 16.7748 40.6337C16.6628 40.5205 16.6628 40.3431 16.7755 40.2293L17.5365 39.4588ZM15.3442 41.9932L16.1072 42.7656C16.1987 42.8579 16.2165 43.0006 16.1502 43.113L14.9891 45.0862C14.923 45.1981 14.7877 45.2541 14.659 45.2224L13.5973 44.9606C12.3905 44.6632 11.1782 45.349 10.8373 46.5223L10.537 47.5567C10.5015 47.6801 10.3843 47.7662 10.2523 47.7662H7.92835C7.79637 47.7662 7.67922 47.6801 7.64326 47.5557L7.34332 46.522C7.00743 45.3661 5.77312 44.6675 4.58353 44.9607L3.52096 45.2226C3.39335 45.2541 3.25867 45.1986 3.19283 45.0864L2.03014 43.1125C1.9642 43.0006 1.98203 42.858 2.07397 42.765L2.83681 41.9938C3.70365 41.1179 3.70355 39.7458 2.83701 38.8703L2.07337 38.0982C1.98193 38.0059 1.9641 37.8635 2.03014 37.7512L3.19323 35.7764C3.25837 35.6653 3.39275 35.6095 3.52145 35.6415L4.58313 35.9031C5.78955 36.2013 7.00235 35.515 7.34322 34.3415L7.64296 33.3088C7.67922 33.184 7.79656 33.0968 7.92815 33.0968H10.2521C10.384 33.0968 10.5011 33.1833 10.5372 33.3083L10.8372 34.3418C11.178 35.5151 12.3903 36.2012 13.5971 35.9032L14.6596 35.6413C14.7874 35.6098 14.9229 35.6656 14.9887 35.7771L16.1504 37.7514C16.2164 37.8634 16.1986 38.0058 16.1061 38.0993L15.3448 38.8701C14.4783 39.7455 14.478 41.1172 15.3442 41.9932Z" fill="#273B98"/>
<path d="M29.8694 41.0334C30.1759 40.6505 30.1412 40.0855 29.7903 39.7411L27.0585 37.0628C26.6695 36.6816 26.0388 36.6815 25.6498 37.0628C25.2608 37.4441 25.2607 38.0625 25.6498 38.444L26.6812 39.4552H21.6729C21.1227 39.4552 20.6768 39.8925 20.6768 40.4318C20.6768 40.971 21.1227 41.4084 21.6729 41.4084H26.6811L25.6498 42.4194C25.2608 42.8008 25.2607 43.4192 25.6498 43.8006C26.0336 44.1767 26.6747 44.1769 27.0585 43.8006L29.7903 41.1224C29.8189 41.0943 29.8446 41.0646 29.8694 41.0334Z" fill="#273B98"/>
<path d="M30.0664 9.15245C30.0315 8.95547 29.9347 8.77099 29.7904 8.62928L27.0586 5.95095C26.6696 5.56978 26.0388 5.56969 25.6499 5.95095C25.2609 6.33232 25.2608 6.9507 25.6499 7.33216L26.6813 8.34333H21.6729C21.1227 8.34333 20.6768 8.78066 20.6768 9.31994C20.6768 9.85922 21.1227 10.2965 21.6729 10.2965H26.6811L25.6498 11.3076C25.2608 11.689 25.2607 12.3074 25.6498 12.6888C26.0336 13.0649 26.6747 13.0651 27.0585 12.6888L29.7903 10.0106C30.018 9.78724 30.1213 9.46321 30.0664 9.15245Z" fill="#273B98"/>
<path d="M9.2368 20.7324C8.68663 20.7324 8.24066 21.1697 8.24066 21.709V25.7624L7.20937 24.7513C6.82037 24.3701 6.18962 24.3701 5.80053 24.7513C5.41154 25.1327 5.41154 25.7511 5.80053 26.1325L8.53233 28.8108C8.91684 29.1877 9.55606 29.1842 9.94106 28.8108L12.6729 26.1325C13.0619 25.7512 13.062 25.1328 12.6729 24.7513C12.2839 24.3702 11.6531 24.3701 11.2641 24.7513L10.2327 25.7625V21.709C10.2329 21.1697 9.78696 20.7324 9.2368 20.7324Z" fill="#273B98"/>
<path d="M41.5434 20.7324C40.9933 20.7324 40.5473 21.1697 40.5473 21.709V25.7624L39.516 24.7513C39.127 24.3701 38.4963 24.3701 38.1072 24.7513C37.7182 25.1327 37.7182 25.7511 38.1072 26.1325L40.839 28.8108C41.2235 29.1877 41.8627 29.1842 42.2477 28.8108L44.9795 26.1325C45.3685 25.7512 45.3686 25.1328 44.9795 24.7513C44.5905 24.3702 43.9598 24.3701 43.5708 24.7513L42.5394 25.7625V21.709C42.5396 21.1697 42.0936 20.7324 41.5434 20.7324Z" fill="#273B98"/>
<path d="M47.6144 31.6982H35.5871C33.7201 31.6982 32.2012 33.1874 32.2012 35.0178V45.8458C32.2012 47.6762 33.7201 49.1654 35.5871 49.1654H44.4696C45.7898 49.1173 45.7888 47.2597 44.4696 47.2122H35.5871C34.8187 47.2122 34.1934 46.5992 34.1934 45.8458V35.0178C34.1934 34.2644 34.8186 33.6514 35.5871 33.6514H47.6144C48.3828 33.6514 49.0081 34.2644 49.0081 35.0178V42.8288C49.0571 44.1232 50.9518 44.1222 51.0003 42.8288V35.0178C51.0003 33.1874 49.4814 31.6982 47.6144 31.6982Z" fill="#273B98"/>
<path d="M1.06166 18.6164H17.1191C17.6692 18.6164 18.1152 18.1791 18.1152 17.6398V14.7159C18.1152 11.6805 15.8533 9.15472 12.8954 8.66994C13.4931 7.89022 13.8477 6.92182 13.8477 5.87363V4.91451C13.6078 -1.26621 4.57055 -1.26143 4.33287 4.91451V5.87363C4.33287 6.92182 4.68759 7.89022 5.28517 8.66994C2.32735 9.15472 0.0654297 11.6806 0.0654297 14.7159V17.6398C0.0655293 18.1792 0.511499 18.6164 1.06166 18.6164ZM6.32514 4.91451C6.4646 1.32208 11.7173 1.32481 11.8555 4.91451V5.87363C11.716 9.46606 6.4633 9.46333 6.32514 5.87363V4.91451ZM2.0578 14.7159C2.0578 12.4121 3.96958 10.5378 6.31956 10.5378H11.8613C14.2111 10.5378 16.123 12.4121 16.123 14.7159V16.6632H14.119V14.5539C14.07 13.2595 12.1752 13.2605 12.1267 14.5539V16.6632H6.08148V14.5539C6.03247 13.2595 4.13773 13.2605 4.08922 14.5539V16.6632H2.0578V14.7159Z" fill="#273B98"/>
<path d="M41.8056 18.278C46.8753 18.278 50.9997 14.2345 50.9997 9.26417C50.5375 -2.67762 33.0717 -2.6743 32.6113 9.26427C32.6113 14.2344 36.7358 18.278 41.8056 18.278ZM41.8056 2.20344C45.7766 2.20344 49.0074 5.37095 49.0074 9.26417C48.6453 18.6182 34.9642 18.6156 34.6036 9.26408C34.6036 5.37085 37.8344 2.20344 41.8056 2.20344Z" fill="#273B98"/>
<path d="M39.9825 12.0366C40.3716 12.4179 41.0023 12.4179 41.3913 12.0366L45.6385 7.87272C46.0275 7.49136 46.0275 6.87298 45.6385 6.49152C45.2495 6.11025 44.6187 6.11025 44.2296 6.49152L40.687 9.96471L39.3363 8.64053C38.9473 8.25926 38.3166 8.25926 37.9275 8.64053C37.5385 9.02189 37.5385 9.64028 37.9275 10.0217L39.9825 12.0366Z" fill="#273B98"/>
<path d="M44.9337 36.8877H37.9723C36.652 36.9357 36.653 38.7933 37.9723 38.8409H44.9337C46.254 38.7929 46.253 36.9353 44.9337 36.8877Z" fill="#273B98"/>
<path d="M37.9723 41.8647C36.652 41.9128 36.653 43.7704 37.9723 43.818H41.6004C42.9207 43.7699 42.9197 41.9123 41.6004 41.8647H37.9723Z" fill="#273B98"/>
<path d="M50.1822 47.1673C49.839 46.3601 48.6245 46.3892 48.3249 47.2123C48.0209 48.0474 48.9667 48.8264 49.7524 48.3901C50.1862 48.1493 50.3709 47.6189 50.1822 47.1673Z" fill="#273B98"/>
</g>
<defs>
<clipPath id="clip0_637_135">
<rect width="51" height="50" fill="white"/>
</clipPath>
</defs>
</svg>
