<svg width="60" height="60" viewBox="0 0 60 60" fill="none" xmlns="http://www.w3.org/2000/svg">
<g clip-path="url(#clip0_640_242)">
<path d="M57.8321 24.7976C57.179 24.441 56.4403 24.2715 55.6972 24.3075C54.9541 24.3435 54.2352 24.5837 53.6197 25.0017L40.0253 34.0644C39.7046 33.1526 39.1094 32.3624 38.3215 31.8024C37.5336 31.2424 36.5917 30.9402 35.625 30.9371H15.9375C15.8144 30.9371 15.6925 30.9613 15.5788 31.0085C15.4651 31.0556 15.3617 31.1247 15.2747 31.2118L9.37504 37.1114L8.16285 35.8993C8.07582 35.8122 7.97249 35.7431 7.85876 35.696C7.74503 35.6489 7.62312 35.6246 7.50001 35.6246C7.3769 35.6246 7.255 35.6489 7.14127 35.696C7.02753 35.7431 6.9242 35.8122 6.83717 35.8993L2.14967 40.5868C2.0626 40.6738 1.99352 40.7771 1.94639 40.8909C1.89927 41.0046 1.87501 41.1265 1.87501 41.2496C1.87501 41.3727 1.89927 41.4946 1.94639 41.6084C1.99352 41.7221 2.0626 41.8254 2.14967 41.9125L3.36186 43.1246L0.274728 46.2118C0.186389 46.2985 0.11611 46.4019 0.0679525 46.516C0.0197945 46.6301 -0.00528906 46.7525 -0.00584976 46.8764C-0.00641047 47.0002 0.0175628 47.1229 0.0646857 47.2374C0.111809 47.3519 0.181147 47.4559 0.268698 47.5434C0.356248 47.631 0.460276 47.7003 0.574773 47.7474C0.68927 47.7946 0.811969 47.8185 0.935783 47.818C1.0596 47.8174 1.18207 47.7923 1.29614 47.7442C1.4102 47.696 1.5136 47.6257 1.60035 47.5374L4.68754 44.4503L15.5494 55.3121L12.4622 58.3993C12.3742 58.4861 12.3043 58.5895 12.2565 58.7035C12.2087 58.8174 12.1838 58.9397 12.1834 59.0633C12.1831 59.1869 12.2071 59.3094 12.2542 59.4236C12.3014 59.5379 12.3706 59.6417 12.458 59.7291C12.5454 59.8165 12.6492 59.8858 12.7635 59.9329C12.8778 59.98 13.0002 60.004 13.1238 60.0037C13.2474 60.0033 13.3697 59.9784 13.4837 59.9306C13.5976 59.8828 13.701 59.8129 13.7879 59.7249L16.875 56.6378L18.0872 57.85C18.1743 57.937 18.2776 58.0061 18.3913 58.0532C18.5051 58.1004 18.627 58.1246 18.7501 58.1246C18.8732 58.1246 18.9951 58.1004 19.1088 58.0532C19.2225 58.0061 19.3259 57.937 19.4129 57.85L24.1004 53.1625C24.1875 53.0754 24.2566 52.9721 24.3037 52.8584C24.3508 52.7446 24.3751 52.6227 24.3751 52.4996C24.3751 52.3765 24.3508 52.2546 24.3037 52.1409C24.2566 52.0271 24.1875 51.9238 24.1004 51.8368L22.8882 50.6246L25.7007 47.8121H36.5625C36.7653 47.8122 36.9626 47.7463 37.1247 47.6244L58.3594 31.6993C58.8677 31.3158 59.2803 30.8198 59.5649 30.2502C59.8495 29.6806 59.9985 29.0529 60 28.4162C60.0066 27.6719 59.8076 26.9403 59.4251 26.3019C59.0426 25.6634 58.4914 25.1429 57.8321 24.7976ZM18.75 55.8614L4.13822 41.2496L7.50004 37.8878L22.1119 52.4996L18.75 55.8614ZM57.2342 30.1996L36.2504 45.9371H25.3125C25.1894 45.9371 25.0675 45.9613 24.9538 46.0085C24.8401 46.0556 24.7367 46.1247 24.6497 46.2118L21.5625 49.2989L10.7007 38.4371L16.3257 32.8121H35.625C36.371 32.8121 37.0863 33.1084 37.6138 33.6359C38.1412 34.1633 38.4375 34.8787 38.4375 35.6246C38.4375 36.3705 38.1412 37.0859 37.6138 37.6133C37.0863 38.1408 36.371 38.4371 35.625 38.4371H23.4375C23.1889 38.4371 22.9504 38.5359 22.7746 38.7117C22.5988 38.8875 22.5 39.126 22.5 39.3746C22.5 39.6232 22.5988 39.8617 22.7746 40.0375C22.9504 40.2133 23.1889 40.3121 23.4375 40.3121H35.625C36.7716 40.3085 37.877 39.8838 38.7311 39.1189C39.5852 38.3539 40.1287 37.3019 40.2582 36.1626L54.6598 26.5618C54.9954 26.338 55.3855 26.2095 55.7885 26.19C56.1914 26.1705 56.5921 26.2607 56.9478 26.4511C57.3035 26.6414 57.6009 26.9247 57.8082 27.2708C58.0155 27.6169 58.125 28.0127 58.125 28.4162C58.1242 28.762 58.0433 29.103 57.8888 29.4124C57.7342 29.7218 57.5102 29.9912 57.2342 30.1996Z" fill="#273B98"/>
<path d="M19.8195 29.0625C19.9796 29.0622 20.137 29.0209 20.2767 28.9426C20.4164 28.8642 20.5337 28.7514 20.6174 28.6148C20.7011 28.4783 20.7485 28.3226 20.7549 28.1626C20.7614 28.0025 20.7268 27.8435 20.6544 27.7007C19.3928 25.2185 18.7401 22.4718 18.7501 19.6875C18.7501 14.9633 20.6268 10.4327 23.9673 7.09216C27.3078 3.75167 31.8385 1.875 36.5626 1.875C41.2868 1.875 45.8175 3.75167 49.158 7.09216C52.4985 10.4327 54.3751 14.9633 54.3751 19.6875C54.3771 20.2712 54.3478 20.8547 54.2872 21.4352C54.2742 21.5576 54.2854 21.6814 54.3202 21.7995C54.3549 21.9175 54.4127 22.0276 54.49 22.1234C54.5673 22.2191 54.6627 22.2987 54.7708 22.3576C54.8789 22.4165 54.9975 22.4535 55.1199 22.4666C55.2423 22.4796 55.3661 22.4684 55.4841 22.4337C55.6022 22.3989 55.7123 22.3412 55.808 22.2638C55.9038 22.1865 55.9834 22.0911 56.0423 21.983C56.1012 21.8749 56.1382 21.7563 56.1512 21.6339C56.2192 20.9874 56.2522 20.3376 56.2501 19.6875C56.2501 14.4661 54.1759 9.45846 50.4838 5.76634C46.7917 2.07421 41.7841 0 36.5626 0C31.3412 0 26.3336 2.07421 22.6415 5.76634C18.9493 9.45846 16.8751 14.4661 16.8751 19.6875C16.8642 22.7669 17.5866 25.8046 18.9826 28.5494C19.0609 28.704 19.1806 28.8339 19.3284 28.9245C19.4761 29.0151 19.6461 29.0629 19.8195 29.0625Z" fill="#273B98"/>
<path d="M50.9088 24.1891C51.1505 24.2479 51.4056 24.2084 51.6181 24.0792C51.8306 23.95 51.9832 23.7418 52.0423 23.5002C52.5814 21.3104 52.6497 19.0312 52.2427 16.8131C51.8357 14.595 50.9627 12.4885 49.6813 10.6327C48.4 8.77702 46.7394 7.21431 44.8094 6.04786C42.8793 4.88141 40.7237 4.13778 38.485 3.8661C36.2463 3.59441 33.9754 3.80086 31.8224 4.4718C29.6694 5.14274 27.6832 6.26289 25.9952 7.75826C24.3071 9.25363 22.9556 11.0902 22.0299 13.1466C21.1042 15.2029 20.6253 17.4323 20.625 19.6875C20.6211 22.8832 21.5787 26.0063 23.3734 28.6505C23.5128 28.8564 23.7283 28.9985 23.9724 29.0455C24.2166 29.0926 24.4694 29.0407 24.6753 28.9013C24.8812 28.762 25.0233 28.5465 25.0704 28.3024C25.1174 28.0582 25.0655 27.8054 24.9262 27.5995C23.6887 25.7792 22.8956 23.6939 22.6108 21.5114C22.326 19.3288 22.5573 17.1098 23.2862 15.033C24.0151 12.9561 25.2212 11.0792 26.8076 9.55337C28.3939 8.02751 30.3162 6.89523 32.4199 6.24757C34.5235 5.59992 36.7498 5.45498 38.9196 5.8244C41.0895 6.19383 43.1424 7.06731 44.9132 8.3746C46.684 9.68189 48.1233 11.3865 49.1153 13.3513C50.1073 15.3162 50.6244 17.4864 50.625 19.6875C50.6247 20.8225 50.4889 21.9534 50.2203 23.0562C50.1615 23.2977 50.2009 23.5527 50.33 23.7652C50.4591 23.9776 50.6673 24.1301 50.9088 24.1891Z" fill="#273B98"/>
<path d="M36.5625 10.3125C36.6856 10.3125 36.8075 10.2883 36.9213 10.2412C37.0351 10.1941 37.1384 10.125 37.2255 10.038C37.3125 9.95092 37.3816 9.84756 37.4287 9.7338C37.4758 9.62005 37.5 9.49812 37.5 9.375V8.4375C37.5 8.18886 37.4012 7.9504 37.2254 7.77459C37.0496 7.59877 36.8111 7.5 36.5625 7.5C36.3139 7.5 36.0754 7.59877 35.8996 7.77459C35.7238 7.9504 35.625 8.18886 35.625 8.4375V9.375C35.625 9.49812 35.6492 9.62005 35.6963 9.7338C35.7434 9.84756 35.8125 9.95092 35.8995 10.038C35.9866 10.125 36.0899 10.1941 36.2037 10.2412C36.3175 10.2883 36.4394 10.3125 36.5625 10.3125Z" fill="#273B98"/>
<path d="M30.469 9.13378C30.3623 9.19526 30.2688 9.27716 30.1938 9.3748C30.1189 9.47243 30.0639 9.58389 30.032 9.7028C30.0001 9.82171 29.9919 9.94574 30.008 10.0678C30.0241 10.1899 30.0641 10.3075 30.1257 10.4141L30.5944 11.2258C30.7188 11.441 30.9236 11.598 31.1637 11.6623C31.4039 11.7266 31.6597 11.6929 31.875 11.5687C32.0903 11.4444 32.2474 11.2397 32.3119 10.9996C32.3763 10.7595 32.3427 10.5036 32.2186 10.2883L31.7498 9.47664C31.6883 9.36997 31.6063 9.27646 31.5087 9.20148C31.411 9.12651 31.2994 9.07152 31.1805 9.03968C31.0615 9.00783 30.9375 8.99975 30.8154 9.0159C30.6933 9.03205 30.5756 9.07211 30.469 9.13378Z" fill="#273B98"/>
<path d="M28.1007 13.7196L27.2887 13.2508C27.182 13.1892 27.0643 13.1492 26.9421 13.1331C26.82 13.1169 26.6959 13.125 26.577 13.1569C26.458 13.1888 26.3464 13.2438 26.2487 13.3187C26.151 13.3937 26.069 13.4872 26.0074 13.5939C25.9458 13.7006 25.9059 13.8183 25.8898 13.9405C25.8738 14.0626 25.8819 14.1867 25.9139 14.3056C25.9458 14.4246 26.0008 14.5361 26.0759 14.6338C26.1509 14.7315 26.2444 14.8134 26.3512 14.875L27.1632 15.3437C27.2699 15.4053 27.3876 15.4454 27.5097 15.4615C27.6318 15.4776 27.7559 15.4695 27.8749 15.4376C27.9939 15.4058 28.1054 15.3508 28.2032 15.2758C28.3009 15.2008 28.3829 15.1073 28.4445 15.0006C28.506 14.894 28.546 14.7762 28.562 14.6541C28.5781 14.5319 28.5699 14.4078 28.538 14.2889C28.5061 14.1699 28.451 14.0584 28.376 13.9607C28.301 13.863 28.2074 13.7811 28.1007 13.7196Z" fill="#273B98"/>
<path d="M27.1875 19.6875C27.1875 19.5644 27.1633 19.4425 27.1162 19.3287C27.0691 19.2149 27 19.1116 26.913 19.0245C26.8259 18.9375 26.7226 18.8684 26.6088 18.8213C26.495 18.7742 26.3731 18.75 26.25 18.75H25.3125C25.0639 18.75 24.8254 18.8488 24.6496 19.0246C24.4738 19.2004 24.375 19.4389 24.375 19.6875C24.375 19.9361 24.4738 20.1746 24.6496 20.3504C24.8254 20.5262 25.0639 20.625 25.3125 20.625H26.25C26.3731 20.625 26.495 20.6008 26.6088 20.5537C26.7226 20.5066 26.8259 20.4375 26.913 20.3505C27 20.2634 27.0691 20.1601 27.1162 20.0463C27.1633 19.9325 27.1875 19.8106 27.1875 19.6875Z" fill="#273B98"/>
<path d="M26.8206 26.2504C26.9848 26.2505 27.1462 26.2073 27.2884 26.125L28.1005 25.6562C28.2072 25.5947 28.3007 25.5127 28.3757 25.4151C28.4508 25.3174 28.5058 25.2059 28.5377 25.0869C28.5697 24.9679 28.5778 24.8438 28.5618 24.7217C28.5457 24.5996 28.5058 24.4818 28.4442 24.3752C28.3826 24.2685 28.3006 24.175 28.2029 24.1C28.1052 24.025 27.9936 23.97 27.8747 23.9382C27.7557 23.9063 27.6316 23.8982 27.5095 23.9143C27.3874 23.9304 27.2696 23.9704 27.163 24.0321L26.3509 24.5008C26.172 24.604 26.0322 24.7634 25.9532 24.9542C25.8742 25.145 25.8604 25.3565 25.9139 25.556C25.9674 25.7554 26.0853 25.9316 26.2493 26.0572C26.4132 26.1827 26.6141 26.2507 26.8206 26.2504Z" fill="#273B98"/>
<path d="M41.3753 29.8992C41.4577 30.0419 41.5762 30.1604 41.719 30.2426C41.8617 30.3249 42.0236 30.3682 42.1883 30.368C42.3528 30.3677 42.5143 30.3242 42.6566 30.2419C42.7989 30.1595 42.9171 30.0411 42.9993 29.8987C43.0814 29.7562 43.1247 29.5947 43.1248 29.4302C43.1248 29.2658 43.0816 29.1042 42.9995 28.9617L42.5307 28.1501C42.4063 27.9349 42.2016 27.7779 41.9614 27.7136C41.7213 27.6493 41.4655 27.6829 41.2502 27.8072C41.0349 27.9315 40.8777 28.1362 40.8133 28.3763C40.7489 28.6164 40.7824 28.8723 40.9066 29.0876L41.3753 29.8992Z" fill="#273B98"/>
<path d="M45.025 25.6562L45.8371 26.125C46.0524 26.2491 46.3083 26.2827 46.5484 26.2183C46.7885 26.1538 46.9932 25.9967 47.1175 25.7814C47.2417 25.5661 47.2754 25.3103 47.2111 25.0701C47.1468 24.83 46.9898 24.6252 46.7746 24.5008L45.9625 24.0321C45.8558 23.9704 45.7381 23.9304 45.616 23.9143C45.4939 23.8982 45.3698 23.9063 45.2508 23.9382C45.1318 23.97 45.0203 24.025 44.9225 24.1C44.8248 24.175 44.7428 24.2685 44.6812 24.3752C44.6197 24.4818 44.5797 24.5996 44.5637 24.7217C44.5476 24.8438 44.5558 24.9679 44.5877 25.0869C44.6196 25.2059 44.6747 25.3174 44.7497 25.4151C44.8247 25.5127 44.9183 25.5947 45.025 25.6562Z" fill="#273B98"/>
<path d="M48.75 19.6875C48.75 19.5644 48.7258 19.4425 48.6787 19.3287C48.6316 19.2149 48.5625 19.1116 48.4755 19.0245C48.3884 18.9375 48.2851 18.8684 48.1713 18.8213C48.0575 18.7742 47.9356 18.75 47.8125 18.75H46.875C46.6264 18.75 46.3879 18.8488 46.2121 19.0246C46.0363 19.2004 45.9375 19.4389 45.9375 19.6875C45.9375 19.9361 46.0363 20.1746 46.2121 20.3504C46.3879 20.5262 46.6264 20.625 46.875 20.625H47.8125C47.9356 20.625 48.0575 20.6008 48.1713 20.5537C48.2851 20.5066 48.3884 20.4375 48.4755 20.3505C48.5625 20.2634 48.6316 20.1601 48.6787 20.0463C48.7258 19.9325 48.75 19.8106 48.75 19.6875Z" fill="#273B98"/>
<path d="M45.4944 15.4691C45.6587 15.4693 45.8201 15.426 45.9622 15.3437L46.7743 14.875C46.881 14.8134 46.9745 14.7315 47.0496 14.6338C47.1246 14.5361 47.1796 14.4246 47.2116 14.3056C47.2435 14.1867 47.2517 14.0626 47.2356 13.9405C47.2196 13.8183 47.1796 13.7006 47.118 13.5939C47.0564 13.4872 46.9745 13.3937 46.8767 13.3187C46.779 13.2438 46.6675 13.1888 46.5485 13.1569C46.4295 13.125 46.3054 13.1169 46.1833 13.1331C46.0612 13.1492 45.9434 13.1892 45.8368 13.2508L45.0247 13.7196C44.8458 13.8228 44.706 13.9821 44.627 14.1729C44.548 14.3637 44.5342 14.5753 44.5877 14.7747C44.6413 14.9742 44.7592 15.1504 44.9231 15.2759C45.0871 15.4015 45.2879 15.4694 45.4944 15.4691Z" fill="#273B98"/>
<path d="M42.6562 9.13304C42.5496 9.07128 42.4319 9.03115 42.3098 9.01496C42.1877 8.99877 42.0636 9.00683 41.9446 9.03868C41.8256 9.07053 41.7141 9.12554 41.6164 9.20057C41.5187 9.2756 41.4368 9.36916 41.3753 9.4759L40.9066 10.2875C40.7824 10.5029 40.7489 10.7587 40.8133 10.9988C40.8777 11.2389 41.0349 11.4436 41.2502 11.5679C41.4655 11.6922 41.7213 11.7259 41.9614 11.6616C42.2016 11.5973 42.4063 11.4403 42.5307 11.225L42.9995 10.4134C43.0611 10.3068 43.1011 10.1891 43.1171 10.0671C43.1332 9.945 43.1251 9.82097 43.0932 9.70206C43.0613 9.58315 43.0063 9.47169 42.9313 9.37405C42.8563 9.27642 42.7628 9.19452 42.6562 9.13304Z" fill="#273B98"/>
<path d="M35.625 19.6875C35.625 19.8106 35.6492 19.9325 35.6963 20.0463C35.7434 20.1601 35.8125 20.2634 35.8995 20.3505C35.9866 20.4375 36.0899 20.5066 36.2037 20.5537C36.3175 20.6008 36.4394 20.625 36.5625 20.625H41.25C41.4986 20.625 41.7371 20.5262 41.9129 20.3504C42.0887 20.1746 42.1875 19.9361 42.1875 19.6875C42.1875 19.4389 42.0887 19.2004 41.9129 19.0246C41.7371 18.8488 41.4986 18.75 41.25 18.75H37.5V13.125C37.5 12.8764 37.4012 12.6379 37.2254 12.4621C37.0496 12.2863 36.8111 12.1875 36.5625 12.1875C36.3139 12.1875 36.0754 12.2863 35.8996 12.4621C35.7238 12.6379 35.625 12.8764 35.625 13.125V19.6875Z" fill="#273B98"/>
</g>
<defs>
<clipPath id="clip0_640_242">
<rect width="60" height="60" fill="white"/>
</clipPath>
</defs>
</svg>
